# Blender v3.0.0 OBJ File: ''
# www.blender.org
mtllib caliburn.mtl
o cube
v 0.040625 -0.187500 -0.040625
v -0.040625 -0.187500 -0.040625
v -0.040625 0.187500 -0.040625
v 0.040625 0.187500 -0.040625
v 0.040625 -0.187500 0.040625
v 0.040625 0.187500 0.040625
v -0.040625 -0.187500 0.040625
v -0.040625 0.187500 0.040625
vt 0.562500 0.250000
vt 0.593750 0.250000
vt 0.593750 0.437500
vt 0.562500 0.437500
vt 0.593750 0.250000
vt 0.625000 0.250000
vt 0.625000 0.437500
vt 0.593750 0.437500
vt 0.625000 0.812500
vt 0.656250 0.812500
vt 0.656250 1.000000
vt 0.625000 1.000000
vt 0.312500 0.187500
vt 0.343750 0.187500
vt 0.343750 0.375000
vt 0.312500 0.375000
vt 0.406250 0.281250
vt 0.375000 0.281250
vt 0.375000 0.250000
vt 0.406250 0.250000
vt 0.375000 0.250000
vt 0.343750 0.250000
vt 0.343750 0.281250
vt 0.375000 0.281250
vn 0.0000 0.0000 -1.0000
vn 1.0000 0.0000 0.0000
vn 0.0000 -0.0000 1.0000
vn -1.0000 0.0000 0.0000
vn 0.0000 1.0000 0.0000
vn 0.0000 -1.0000 0.0000
usemtl m_e2edfe99-40a8-3ba3-ba7e-01d24f509ace
s 1
f 1/1/1 2/2/1 3/3/1 4/4/1
f 5/5/2 1/6/2 4/7/2 6/8/2
f 7/9/3 5/10/3 6/11/3 8/12/3
f 2/13/4 7/14/4 8/15/4 3/16/4
f 8/17/5 6/18/5 4/19/5 3/20/5
f 2/21/6 1/22/6 5/23/6 7/24/6
o cube.000
v 0.056250 -0.268750 -0.056250
v -0.056250 -0.268750 -0.056250
v -0.056250 -0.156250 -0.056250
v 0.056250 -0.156250 -0.056250
v 0.056250 -0.268750 0.056250
v 0.056250 -0.156250 0.056250
v -0.056250 -0.268750 0.056250
v -0.056250 -0.156250 0.056250
vt 0.625000 0.343750
vt 0.687500 0.343750
vt 0.687500 0.406250
vt 0.625000 0.406250
vt 0.656250 0.937500
vt 0.718750 0.937500
vt 0.718750 1.000000
vt 0.656250 1.000000
vt 0.656250 0.875000
vt 0.718750 0.875000
vt 0.718750 0.937500
vt 0.656250 0.937500
vt 0.656250 0.812500
vt 0.718750 0.812500
vt 0.718750 0.875000
vt 0.656250 0.875000
vt 0.718750 0.812500
vt 0.656250 0.812500
vt 0.656250 0.750000
vt 0.718750 0.750000
vt 0.718750 0.687500
vt 0.656250 0.687500
vt 0.656250 0.750000
vt 0.718750 0.750000
vn 0.0000 0.0000 -1.0000
vn 1.0000 0.0000 0.0000
vn 0.0000 -0.0000 1.0000
vn -1.0000 0.0000 0.0000
vn 0.0000 1.0000 0.0000
vn 0.0000 -1.0000 0.0000
usemtl m_e2edfe99-40a8-3ba3-ba7e-01d24f509ace
s 1
f 9/25/7 10/26/7 11/27/7 12/28/7
f 13/29/8 9/30/8 12/31/8 14/32/8
f 15/33/9 13/34/9 14/35/9 16/36/9
f 10/37/10 15/38/10 16/39/10 11/40/10
f 16/41/11 14/42/11 12/43/11 11/44/11
f 10/45/12 9/46/12 13/47/12 15/48/12
o cube.001
v 0.050000 0.187500 -0.187500
v -0.050000 0.187500 -0.187500
v -0.050000 0.265625 -0.187500
v 0.050000 0.265625 -0.187500
v 0.050000 0.187500 0.187500
v 0.050000 0.265625 0.187500
v -0.050000 0.187500 0.187500
v -0.050000 0.265625 0.187500
vt 0.718750 0.968750
vt 0.781250 0.968750
vt 0.781250 1.000000
vt 0.718750 1.000000
vt 0.343750 0.343750
vt 0.531250 0.343750
vt 0.531250 0.375000
vt 0.343750 0.375000
vt 0.718750 0.937500
vt 0.781250 0.937500
vt 0.781250 0.968750
vt 0.718750 0.968750
vt 0.625000 0.406250
vt 0.812500 0.406250
vt 0.812500 0.437500
vt 0.625000 0.437500
vt 0.562500 0.562500
vt 0.500000 0.562500
vt 0.500000 0.375000
vt 0.562500 0.375000
vt 0.625000 0.812500
vt 0.562500 0.812500
vt 0.562500 1.000000
vt 0.625000 1.000000
vn 0.0000 0.0000 -1.0000
vn 1.0000 0.0000 0.0000
vn 0.0000 -0.0000 1.0000
vn -1.0000 0.0000 0.0000
vn 0.0000 1.0000 0.0000
vn 0.0000 -1.0000 -0.0000
usemtl m_e2edfe99-40a8-3ba3-ba7e-01d24f509ace
s 1
f 17/49/13 18/50/13 19/51/13 20/52/13
f 21/53/14 17/54/14 20/55/14 22/56/14
f 23/57/15 21/58/15 22/59/15 24/60/15
f 18/61/16 23/62/16 24/63/16 19/64/16
f 24/65/17 22/66/17 20/67/17 19/68/17
f 18/69/18 17/70/18 21/71/18 23/72/18
o cube.002
v 0.000000 0.265625 -0.156250
v 0.000000 0.265625 -0.156250
v 0.000000 1.890625 -0.156250
v 0.000000 1.890625 -0.156250
v 0.000000 0.265625 0.156250
v 0.000000 1.890625 0.156250
v 0.000000 0.265625 0.156250
v 0.000000 1.890625 0.156250
vt 0.000000 0.187500
vt 0.000000 0.187500
vt 0.000000 1.000000
vt 0.000000 1.000000
vt 0.000000 0.187500
vt 0.156250 0.187500
vt 0.156250 1.000000
vt 0.000000 1.000000
vt 0.000000 0.187500
vt 0.000000 1.000000
vt 0.156250 0.187500
vt 0.312500 0.187500
vt 0.312500 1.000000
vt 0.156250 1.000000
vt 0.000000 0.843750
vt 0.000000 0.843750
vt 0.000000 0.843750
vt 0.000000 0.843750
vt 0.000000 1.000000
vt 0.000000 1.000000
vn 0.0000 0.0000 -1.0000
vn 1.0000 0.0000 0.0000
vn 0.0000 0.0000 1.0000
vn -1.0000 0.0000 0.0000
vn 0.0000 0.0000 0.0000
usemtl m_e2edfe99-40a8-3ba3-ba7e-01d24f509ace
s 1
f 25/73/19 26/74/19 27/75/19 28/76/19
f 29/77/20 25/78/20 28/79/20 30/80/20
f 31/81/21 29/77/21 30/80/21 32/82/21
f 26/83/22 31/84/22 32/85/22 27/86/22
f 32/82/23 30/80/23 28/87/23 27/88/23
f 26/89/23 25/90/23 29/91/23 31/92/23
o cube.003
v 0.056250 0.171875 -0.250000
v -0.056250 0.171875 -0.250000
v -0.056250 0.281250 -0.250000
v 0.056250 0.281250 -0.250000
v 0.056250 0.171875 -0.187500
v 0.056250 0.281250 -0.187500
v -0.056250 0.171875 -0.187500
v -0.056250 0.281250 -0.187500
vt 0.656250 0.625000
vt 0.718750 0.625000
vt 0.718750 0.687500
vt 0.656250 0.687500
vt 0.531250 0.312500
vt 0.562500 0.312500
vt 0.562500 0.375000
vt 0.531250 0.375000
vt 0.343750 0.281250
vt 0.406250 0.281250
vt 0.406250 0.343750
vt 0.343750 0.343750
vt 0.531250 0.250000
vt 0.562500 0.250000
vt 0.562500 0.312500
vt 0.531250 0.312500
vt 0.781250 0.937500
vt 0.718750 0.937500
vt 0.718750 0.906250
vt 0.781250 0.906250
vt 0.781250 0.875000
vt 0.718750 0.875000
vt 0.718750 0.906250
vt 0.781250 0.906250
vn 0.0000 0.0000 -1.0000
vn 1.0000 0.0000 0.0000
vn 0.0000 -0.0000 1.0000
vn -1.0000 0.0000 0.0000
vn 0.0000 1.0000 0.0000
vn 0.0000 -1.0000 -0.0000
usemtl m_e2edfe99-40a8-3ba3-ba7e-01d24f509ace
s 1
f 33/93/24 34/94/24 35/95/24 36/96/24
f 37/97/25 33/98/25 36/99/25 38/100/25
f 39/101/26 37/102/26 38/103/26 40/104/26
f 34/105/27 39/106/27 40/107/27 35/108/27
f 40/109/28 38/110/28 36/111/28 35/112/28
f 34/113/29 33/114/29 37/115/29 39/116/29
o cube.004
v 0.056250 0.171875 0.187500
v -0.056250 0.171875 0.187500
v -0.056250 0.281250 0.187500
v 0.056250 0.281250 0.187500
v 0.056250 0.171875 0.250000
v 0.056250 0.281250 0.250000
v -0.056250 0.171875 0.250000
v -0.056250 0.281250 0.250000
vt 0.656250 0.562500
vt 0.718750 0.562500
vt 0.718750 0.625000
vt 0.656250 0.625000
vt 0.718750 0.812500
vt 0.750000 0.812500
vt 0.750000 0.875000
vt 0.718750 0.875000
vt 0.406250 0.281250
vt 0.468750 0.281250
vt 0.468750 0.343750
vt 0.406250 0.343750
vt 0.718750 0.750000
vt 0.750000 0.750000
vt 0.750000 0.812500
vt 0.718750 0.812500
vt 0.781250 0.750000
vt 0.718750 0.750000
vt 0.718750 0.718750
vt 0.781250 0.718750
vt 0.781250 0.687500
vt 0.718750 0.687500
vt 0.718750 0.718750
vt 0.781250 0.718750
vn 0.0000 0.0000 -1.0000
vn 1.0000 -0.0000 0.0000
vn 0.0000 -0.0000 1.0000
vn -1.0000 -0.0000 0.0000
vn 0.0000 1.0000 0.0000
vn 0.0000 -1.0000 -0.0000
usemtl m_e2edfe99-40a8-3ba3-ba7e-01d24f509ace
s 1
f 41/117/30 42/118/30 43/119/30 44/120/30
f 45/121/31 41/122/31 44/123/31 46/124/31
f 47/125/32 45/126/32 46/127/32 48/128/32
f 42/129/33 47/130/33 48/131/33 43/132/33
f 48/133/34 46/134/34 44/135/34 43/136/34
f 42/137/35 41/138/35 45/139/35 47/140/35
o cube.005
v 0.056250 0.168750 -0.056250
v -0.056250 0.168750 -0.056250
v -0.056250 0.281250 -0.056250
v 0.056250 0.281250 -0.056250
v 0.056250 0.168750 0.056250
v 0.056250 0.281250 0.056250
v -0.056250 0.168750 0.056250
v -0.056250 0.281250 0.056250
vt 0.656250 0.500000
vt 0.718750 0.500000
vt 0.718750 0.562500
vt 0.656250 0.562500
vt 0.468750 0.281250
vt 0.531250 0.281250
vt 0.531250 0.343750
vt 0.468750 0.343750
vt 0.656250 0.437500
vt 0.718750 0.437500
vt 0.718750 0.500000
vt 0.656250 0.500000
vt 0.625000 0.281250
vt 0.687500 0.281250
vt 0.687500 0.343750
vt 0.625000 0.343750
vt 0.750000 0.406250
vt 0.687500 0.406250
vt 0.687500 0.343750
vt 0.750000 0.343750
vt 0.750000 0.281250
vt 0.687500 0.281250
vt 0.687500 0.343750
vt 0.750000 0.343750
vn 0.0000 0.0000 -1.0000
vn 1.0000 0.0000 0.0000
vn 0.0000 -0.0000 1.0000
vn -1.0000 0.0000 0.0000
vn 0.0000 1.0000 0.0000
vn 0.0000 -1.0000 -0.0000
usemtl m_e2edfe99-40a8-3ba3-ba7e-01d24f509ace
s 1
f 49/141/36 50/142/36 51/143/36 52/144/36
f 53/145/37 49/146/37 52/147/37 54/148/37
f 55/149/38 53/150/38 54/151/38 56/152/38
f 50/153/39 55/154/39 56/155/39 51/156/39
f 56/157/40 54/158/40 52/159/40 51/160/40
f 50/161/41 49/162/41 53/163/41 55/164/41
o cube.006
v 0.068750 0.181250 -0.043750
v -0.068750 0.181250 -0.043750
v -0.068750 0.268750 -0.043750
v 0.068750 0.268750 -0.043750
v 0.068750 0.181250 0.043750
v 0.068750 0.268750 0.043750
v -0.068750 0.181250 0.043750
v -0.068750 0.268750 0.043750
vt 0.718750 0.625000
vt 0.781250 0.625000
vt 0.781250 0.687500
vt 0.718750 0.687500
vt 0.406250 0.218750
vt 0.468750 0.218750
vt 0.468750 0.281250
vt 0.406250 0.281250
vt 0.718750 0.437500
vt 0.781250 0.437500
vt 0.781250 0.500000
vt 0.718750 0.500000
vt 0.468750 0.218750
vt 0.531250 0.218750
vt 0.531250 0.281250
vt 0.468750 0.281250
vt 0.781250 0.625000
vt 0.718750 0.625000
vt 0.718750 0.562500
vt 0.781250 0.562500
vt 0.781250 0.500000
vt 0.718750 0.500000
vt 0.718750 0.562500
vt 0.781250 0.562500
vn 0.0000 0.0000 -1.0000
vn 1.0000 0.0000 0.0000
vn 0.0000 -0.0000 1.0000
vn -1.0000 0.0000 0.0000
vn 0.0000 1.0000 0.0000
vn 0.0000 -1.0000 0.0000
usemtl m_e2edfe99-40a8-3ba3-ba7e-01d24f509ace
s 1
f 57/165/42 58/166/42 59/167/42 60/168/42
f 61/169/43 57/170/43 60/171/43 62/172/43
f 63/173/44 61/174/44 62/175/44 64/176/44
f 58/177/45 63/178/45 64/179/45 59/180/45
f 64/181/46 62/182/46 60/183/46 59/184/46
f 58/185/47 57/186/47 61/187/47 63/188/47
o cube.007
v 0.000625 -0.456694 -0.000000
v 0.000625 -0.324112 -0.132583
v 0.000625 -0.191529 -0.000000
v 0.000625 -0.324112 0.132582
v 0.000625 -0.324112 -0.132583
v 0.000625 -0.456694 -0.000000
v 0.000625 -0.324112 0.132582
v 0.000625 -0.191529 -0.000000
vt 0.562500 0.718750
vt 0.656250 0.718750
vt 0.656250 0.812500
vt 0.562500 0.812500
vt 0.562500 0.625000
vt 0.656250 0.625000
vt 0.656250 0.718750
vt 0.562500 0.718750
vn 1.0000 -0.0000 0.0000
vn -1.0000 0.0000 0.0000
usemtl m_e2edfe99-40a8-3ba3-ba7e-01d24f509ace
s 1
f 65/189/48 66/190/48 67/191/48 68/192/48
f 69/193/49 70/194/49 71/195/49 72/196/49
o cube.008
v 0.000000 -0.087500 0.375000
v 0.000000 -0.087500 0.187500
v 0.000000 0.537500 0.187500
v 0.000000 0.537500 0.375000
v 0.000000 -0.087500 0.187500
v 0.000000 -0.087500 0.375000
v 0.000000 0.537500 0.375000
v 0.000000 0.537500 0.187500
vt 0.312500 0.687500
vt 0.406250 0.687500
vt 0.406250 1.000000
vt 0.312500 1.000000
vt 0.312500 0.375000
vt 0.406250 0.375000
vt 0.406250 0.687500
vt 0.312500 0.687500
vn 1.0000 0.0000 0.0000
vn -1.0000 0.0000 0.0000
usemtl m_e2edfe99-40a8-3ba3-ba7e-01d24f509ace
s 1
f 73/197/50 74/198/50 75/199/50 76/200/50
f 77/201/51 78/202/51 79/203/51 80/204/51
o cube.009
v 0.000000 -0.087500 -0.187500
v 0.000000 -0.087500 -0.375000
v 0.000000 0.537500 -0.375000
v 0.000000 0.537500 -0.187500
v 0.000000 -0.087500 -0.375000
v 0.000000 -0.087500 -0.187500
v 0.000000 0.537500 -0.187500
v 0.000000 0.537500 -0.375000
vt 0.406250 0.687500
vt 0.500000 0.687500
vt 0.500000 1.000000
vt 0.406250 1.000000
vt 0.406250 0.375000
vt 0.500000 0.375000
vt 0.500000 0.687500
vt 0.406250 0.687500
vn 1.0000 0.0000 0.0000
vn -1.0000 0.0000 0.0000
usemtl m_e2edfe99-40a8-3ba3-ba7e-01d24f509ace
s 1
f 81/205/52 82/206/52 83/207/52 84/208/52
f 85/209/53 86/210/53 87/211/53 88/212/53
o cube.010
v 0.000000 -0.761612 -0.018750
v 0.000000 -0.761612 -0.131250
v 0.000000 -0.324112 -0.131250
v 0.000000 -0.324112 -0.018750
v 0.000000 -0.761612 -0.131250
v 0.000000 -0.761612 -0.018750
v 0.000000 -0.324112 -0.018750
v 0.000000 -0.324112 -0.131250
vt 0.500000 0.781250
vt 0.562500 0.781250
vt 0.562500 1.000000
vt 0.500000 1.000000
vt 0.500000 0.562500
vt 0.562500 0.562500
vt 0.562500 0.781250
vt 0.500000 0.781250
vn 1.0000 0.0000 0.0000
vn -1.0000 0.0000 0.0000
usemtl m_e2edfe99-40a8-3ba3-ba7e-01d24f509ace
s 1
f 89/213/54 90/214/54 91/215/54 92/216/54
f 93/217/55 94/218/55 95/219/55 96/220/55
o cube.011
v -0.000625 -0.456694 -0.000000
v -0.000625 -0.324112 -0.132583
v -0.000625 -0.191529 -0.000000
v -0.000625 -0.324112 0.132582
v -0.000625 -0.324112 -0.132583
v -0.000625 -0.456694 -0.000000
v -0.000625 -0.324112 0.132582
v -0.000625 -0.191529 -0.000000
vt 0.562500 0.531250
vt 0.656250 0.531250
vt 0.656250 0.625000
vt 0.562500 0.625000
vt 0.562500 0.437500
vt 0.656250 0.437500
vt 0.656250 0.531250
vt 0.562500 0.531250
vn 1.0000 0.0000 0.0000
vn -1.0000 -0.0000 0.0000
usemtl m_e2edfe99-40a8-3ba3-ba7e-01d24f509ace
s 1
f 97/221/56 98/222/56 99/223/56 100/224/56
f 101/225/57 102/226/57 103/227/57 104/228/57
