# Blender v3.0.0 OBJ File: ''
# www.blender.org
mtllib clarent.mtl
o cube
v 0.040625 -0.187500 -0.040625
v -0.040625 -0.187500 -0.040625
v -0.040625 0.187500 -0.040625
v 0.040625 0.187500 -0.040625
v 0.040625 -0.187500 0.040625
v 0.040625 0.187500 0.040625
v -0.040625 -0.187500 0.040625
v -0.040625 0.187500 0.040625
vt 0.500000 0.250000
vt 0.531250 0.250000
vt 0.531250 0.437500
vt 0.500000 0.437500
vt 0.531250 0.250000
vt 0.562500 0.250000
vt 0.562500 0.437500
vt 0.531250 0.437500
vt 0.562500 0.250000
vt 0.593750 0.250000
vt 0.593750 0.437500
vt 0.562500 0.437500
vt 0.593750 0.250000
vt 0.625000 0.250000
vt 0.625000 0.437500
vt 0.593750 0.437500
vt 0.437500 0.250000
vt 0.406250 0.250000
vt 0.406250 0.218750
vt 0.437500 0.218750
vt 0.468750 0.218750
vt 0.437500 0.218750
vt 0.437500 0.250000
vt 0.468750 0.250000
vn 0.0000 0.0000 -1.0000
vn 1.0000 0.0000 0.0000
vn 0.0000 -0.0000 1.0000
vn -1.0000 0.0000 0.0000
vn 0.0000 1.0000 0.0000
vn 0.0000 -1.0000 0.0000
usemtl m_a5f10dc0-3661-ffe4-7677-aabab651024b
s 1
f 1/1/1 2/2/1 3/3/1 4/4/1
f 5/5/2 1/6/2 4/7/2 6/8/2
f 7/9/3 5/10/3 6/11/3 8/12/3
f 2/13/4 7/14/4 8/15/4 3/16/4
f 8/17/5 6/18/5 4/19/5 3/20/5
f 2/21/6 1/22/6 5/23/6 7/24/6
o cube.000
v 0.056250 -0.268750 -0.056250
v -0.056250 -0.268750 -0.056250
v -0.056250 -0.156250 -0.056250
v 0.056250 -0.156250 -0.056250
v 0.056250 -0.268750 0.056250
v 0.056250 -0.156250 0.056250
v -0.056250 -0.268750 0.056250
v -0.056250 -0.156250 0.056250
vt 0.625000 0.343750
vt 0.687500 0.343750
vt 0.687500 0.406250
vt 0.625000 0.406250
vt 0.656250 0.750000
vt 0.718750 0.750000
vt 0.718750 0.812500
vt 0.656250 0.812500
vt 0.656250 0.687500
vt 0.718750 0.687500
vt 0.718750 0.750000
vt 0.656250 0.750000
vt 0.312500 0.281250
vt 0.375000 0.281250
vt 0.375000 0.343750
vt 0.312500 0.343750
vt 0.718750 0.687500
vt 0.656250 0.687500
vt 0.656250 0.625000
vt 0.718750 0.625000
vt 0.437500 0.281250
vt 0.375000 0.281250
vt 0.375000 0.343750
vt 0.437500 0.343750
vn 0.0000 0.0000 -1.0000
vn 1.0000 0.0000 0.0000
vn 0.0000 -0.0000 1.0000
vn -1.0000 0.0000 0.0000
vn 0.0000 1.0000 0.0000
vn 0.0000 -1.0000 0.0000
usemtl m_a5f10dc0-3661-ffe4-7677-aabab651024b
s 1
f 9/25/7 10/26/7 11/27/7 12/28/7
f 13/29/8 9/30/8 12/31/8 14/32/8
f 15/33/9 13/34/9 14/35/9 16/36/9
f 10/37/10 15/38/10 16/39/10 11/40/10
f 16/41/11 14/42/11 12/43/11 11/44/11
f 10/45/12 9/46/12 13/47/12 15/48/12
o cube.001
v 0.050000 0.187500 -0.187500
v -0.050000 0.187500 -0.187500
v -0.050000 0.265625 -0.187500
v 0.050000 0.265625 -0.187500
v 0.050000 0.187500 0.187500
v 0.050000 0.265625 0.187500
v -0.050000 0.187500 0.187500
v -0.050000 0.265625 0.187500
vt 0.718750 0.656250
vt 0.781250 0.656250
vt 0.781250 0.687500
vt 0.718750 0.687500
vt 0.312500 0.343750
vt 0.500000 0.343750
vt 0.500000 0.375000
vt 0.312500 0.375000
vt 0.718750 0.625000
vt 0.781250 0.625000
vt 0.781250 0.656250
vt 0.718750 0.656250
vt 0.625000 0.406250
vt 0.812500 0.406250
vt 0.812500 0.437500
vt 0.625000 0.437500
vt 0.562500 0.812500
vt 0.500000 0.812500
vt 0.500000 0.625000
vt 0.562500 0.625000
vt 0.562500 0.437500
vt 0.500000 0.437500
vt 0.500000 0.625000
vt 0.562500 0.625000
vn 0.0000 0.0000 -1.0000
vn 1.0000 0.0000 0.0000
vn 0.0000 -0.0000 1.0000
vn -1.0000 0.0000 0.0000
vn 0.0000 1.0000 0.0000
vn 0.0000 -1.0000 -0.0000
usemtl m_a5f10dc0-3661-ffe4-7677-aabab651024b
s 1
f 17/49/13 18/50/13 19/51/13 20/52/13
f 21/53/14 17/54/14 20/55/14 22/56/14
f 23/57/15 21/58/15 22/59/15 24/60/15
f 18/61/16 23/62/16 24/63/16 19/64/16
f 24/65/17 22/66/17 20/67/17 19/68/17
f 18/69/18 17/70/18 21/71/18 23/72/18
o cube.002
v 0.000000 0.265625 -0.156250
v 0.000000 0.265625 -0.156250
v 0.000000 1.890625 -0.156250
v 0.000000 1.890625 -0.156250
v 0.000000 0.265625 0.156250
v 0.000000 1.890625 0.156250
v 0.000000 0.265625 0.156250
v 0.000000 1.890625 0.156250
vt 0.000000 0.187500
vt 0.000000 0.187500
vt 0.000000 1.000000
vt 0.000000 1.000000
vt 0.000000 0.187500
vt 0.156250 0.187500
vt 0.156250 1.000000
vt 0.000000 1.000000
vt 0.000000 0.187500
vt 0.000000 1.000000
vt 0.156250 0.187500
vt 0.312500 0.187500
vt 0.312500 1.000000
vt 0.156250 1.000000
vt 0.000000 0.843750
vt 0.000000 0.843750
vt 0.000000 0.843750
vt 0.000000 0.843750
vt 0.000000 1.000000
vt 0.000000 1.000000
vn 0.0000 0.0000 -1.0000
vn 1.0000 0.0000 0.0000
vn 0.0000 0.0000 1.0000
vn -1.0000 0.0000 0.0000
vn 0.0000 0.0000 0.0000
usemtl m_a5f10dc0-3661-ffe4-7677-aabab651024b
s 1
f 25/73/19 26/74/19 27/75/19 28/76/19
f 29/77/20 25/78/20 28/79/20 30/80/20
f 31/81/21 29/77/21 30/80/21 32/82/21
f 26/83/22 31/84/22 32/85/22 27/86/22
f 32/82/23 30/80/23 28/87/23 27/88/23
f 26/89/23 25/90/23 29/91/23 31/92/23
o cube.003
v 0.056250 0.171875 -0.250000
v -0.056250 0.171875 -0.250000
v -0.056250 0.281250 -0.250000
v 0.056250 0.281250 -0.250000
v 0.056250 0.171875 -0.187500
v 0.056250 0.281250 -0.187500
v -0.056250 0.171875 -0.187500
v -0.056250 0.281250 -0.187500
vt 0.656250 0.562500
vt 0.718750 0.562500
vt 0.718750 0.625000
vt 0.656250 0.625000
vt 0.375000 0.218750
vt 0.406250 0.218750
vt 0.406250 0.281250
vt 0.375000 0.281250
vt 0.437500 0.281250
vt 0.500000 0.281250
vt 0.500000 0.343750
vt 0.437500 0.343750
vt 0.750000 0.562500
vt 0.750000 0.625000
vt 0.468750 0.281250
vt 0.406250 0.281250
vt 0.406250 0.250000
vt 0.468750 0.250000
vt 0.781250 0.531250
vt 0.718750 0.531250
vt 0.718750 0.562500
vt 0.781250 0.562500
vn 0.0000 0.0000 -1.0000
vn 1.0000 0.0000 0.0000
vn 0.0000 -0.0000 1.0000
vn -1.0000 0.0000 0.0000
vn 0.0000 1.0000 0.0000
vn 0.0000 -1.0000 -0.0000
usemtl m_a5f10dc0-3661-ffe4-7677-aabab651024b
s 1
f 33/93/24 34/94/24 35/95/24 36/96/24
f 37/97/25 33/98/25 36/99/25 38/100/25
f 39/101/26 37/102/26 38/103/26 40/104/26
f 34/94/27 39/105/27 40/106/27 35/95/27
f 40/107/28 38/108/28 36/109/28 35/110/28
f 34/111/29 33/112/29 37/113/29 39/114/29
o cube.004
v 0.056250 0.171875 0.187500
v -0.056250 0.171875 0.187500
v -0.056250 0.281250 0.187500
v 0.056250 0.281250 0.187500
v 0.056250 0.171875 0.250000
v 0.056250 0.281250 0.250000
v -0.056250 0.171875 0.250000
v -0.056250 0.281250 0.250000
vt 0.656250 0.500000
vt 0.718750 0.500000
vt 0.718750 0.562500
vt 0.656250 0.562500
vt 0.468750 0.218750
vt 0.500000 0.218750
vt 0.500000 0.281250
vt 0.468750 0.281250
vt 0.656250 0.437500
vt 0.718750 0.437500
vt 0.718750 0.500000
vt 0.656250 0.500000
vt 0.718750 0.468750
vt 0.750000 0.468750
vt 0.750000 0.531250
vt 0.718750 0.531250
vt 0.781250 0.468750
vt 0.718750 0.468750
vt 0.718750 0.437500
vt 0.781250 0.437500
vt 0.687500 0.250000
vt 0.625000 0.250000
vt 0.625000 0.281250
vt 0.687500 0.281250
vn 0.0000 0.0000 -1.0000
vn 1.0000 -0.0000 0.0000
vn 0.0000 -0.0000 1.0000
vn -1.0000 -0.0000 0.0000
vn 0.0000 1.0000 0.0000
vn 0.0000 -1.0000 -0.0000
usemtl m_a5f10dc0-3661-ffe4-7677-aabab651024b
s 1
f 41/115/30 42/116/30 43/117/30 44/118/30
f 45/119/31 41/120/31 44/121/31 46/122/31
f 47/123/32 45/124/32 46/125/32 48/126/32
f 42/127/33 47/128/33 48/129/33 43/130/33
f 48/131/34 46/132/34 44/133/34 43/134/34
f 42/135/35 41/136/35 45/137/35 47/138/35
o cube.005
v 0.056250 0.168750 -0.056250
v -0.056250 0.168750 -0.056250
v -0.056250 0.281250 -0.056250
v 0.056250 0.281250 -0.056250
v 0.056250 0.168750 0.056250
v 0.056250 0.281250 0.056250
v -0.056250 0.168750 0.056250
v -0.056250 0.281250 0.056250
vt 0.625000 0.281250
vt 0.687500 0.281250
vt 0.687500 0.343750
vt 0.625000 0.343750
vt 0.687500 0.343750
vt 0.750000 0.343750
vt 0.750000 0.406250
vt 0.687500 0.406250
vt 0.687500 0.281250
vt 0.750000 0.281250
vt 0.750000 0.343750
vt 0.687500 0.343750
vt 0.718750 0.750000
vt 0.781250 0.750000
vt 0.781250 0.812500
vt 0.718750 0.812500
vt 0.781250 0.750000
vt 0.718750 0.750000
vt 0.718750 0.687500
vt 0.781250 0.687500
vt 0.375000 0.218750
vt 0.312500 0.218750
vt 0.312500 0.281250
vt 0.375000 0.281250
vn 0.0000 0.0000 -1.0000
vn 1.0000 0.0000 0.0000
vn 0.0000 -0.0000 1.0000
vn -1.0000 0.0000 0.0000
vn 0.0000 1.0000 0.0000
vn 0.0000 -1.0000 -0.0000
usemtl m_a5f10dc0-3661-ffe4-7677-aabab651024b
s 1
f 49/139/36 50/140/36 51/141/36 52/142/36
f 53/143/37 49/144/37 52/145/37 54/146/37
f 55/147/38 53/148/38 54/149/38 56/150/38
f 50/151/39 55/152/39 56/153/39 51/154/39
f 56/155/40 54/156/40 52/157/40 51/158/40
f 50/159/41 49/160/41 53/161/41 55/162/41
o cube.006
v 0.068750 0.181250 -0.043750
v -0.068750 0.181250 -0.043750
v -0.068750 0.268750 -0.043750
v 0.068750 0.268750 -0.043750
v 0.068750 0.181250 0.043750
v 0.068750 0.268750 0.043750
v -0.068750 0.181250 0.043750
v -0.068750 0.268750 0.043750
vt 0.750000 0.281250
vt 0.812500 0.281250
vt 0.812500 0.343750
vt 0.750000 0.343750
vt 0.500000 0.187500
vt 0.562500 0.187500
vt 0.562500 0.250000
vt 0.500000 0.250000
vt 0.750000 0.343750
vt 0.812500 0.343750
vt 0.812500 0.406250
vt 0.750000 0.406250
vt 0.562500 0.187500
vt 0.625000 0.187500
vt 0.625000 0.250000
vt 0.562500 0.250000
vt 0.812500 0.281250
vt 0.750000 0.281250
vt 0.750000 0.218750
vt 0.812500 0.218750
vt 0.750000 0.218750
vt 0.687500 0.218750
vt 0.687500 0.281250
vt 0.750000 0.281250
vn 0.0000 0.0000 -1.0000
vn 1.0000 0.0000 0.0000
vn 0.0000 -0.0000 1.0000
vn -1.0000 0.0000 0.0000
vn 0.0000 1.0000 0.0000
vn 0.0000 -1.0000 0.0000
usemtl m_a5f10dc0-3661-ffe4-7677-aabab651024b
s 1
f 57/163/42 58/164/42 59/165/42 60/166/42
f 61/167/43 57/168/43 60/169/43 62/170/43
f 63/171/44 61/172/44 62/173/44 64/174/44
f 58/175/45 63/176/45 64/177/45 59/178/45
f 64/179/46 62/180/46 60/181/46 59/182/46
f 58/183/47 57/184/47 61/185/47 63/186/47
o cube.007
v 0.000625 -0.399112 -0.093750
v 0.000625 -0.211612 -0.093750
v 0.000625 -0.211612 0.093750
v 0.000625 -0.399112 0.093750
v 0.000625 -0.211612 -0.093750
v 0.000625 -0.399112 -0.093750
v 0.000625 -0.399112 0.093750
v 0.000625 -0.211612 0.093750
vt 0.562500 0.718750
vt 0.656250 0.718750
vt 0.656250 0.812500
vt 0.562500 0.812500
vt 0.562500 0.625000
vt 0.656250 0.625000
vt 0.656250 0.718750
vt 0.562500 0.718750
vn 1.0000 -0.0000 0.0000
vn -1.0000 0.0000 0.0000
usemtl m_a5f10dc0-3661-ffe4-7677-aabab651024b
s 1
f 65/187/48 66/188/48 67/189/48 68/190/48
f 69/191/49 70/192/49 71/193/49 72/194/49
o cube.008
v 0.000000 -0.087500 0.375000
v 0.000000 -0.087500 0.187500
v 0.000000 0.537500 0.187500
v 0.000000 0.537500 0.375000
v 0.000000 -0.087500 0.187500
v 0.000000 -0.087500 0.375000
v 0.000000 0.537500 0.375000
v 0.000000 0.537500 0.187500
vt 0.312500 0.687500
vt 0.406250 0.687500
vt 0.406250 1.000000
vt 0.312500 1.000000
vt 0.312500 0.375000
vt 0.406250 0.375000
vt 0.406250 0.687500
vt 0.312500 0.687500
vn 1.0000 0.0000 0.0000
vn -1.0000 0.0000 0.0000
usemtl m_a5f10dc0-3661-ffe4-7677-aabab651024b
s 1
f 73/195/50 74/196/50 75/197/50 76/198/50
f 77/199/51 78/200/51 79/201/51 80/202/51
o cube.009
v 0.000000 -0.087500 -0.187500
v 0.000000 -0.087500 -0.375000
v 0.000000 0.537500 -0.375000
v 0.000000 0.537500 -0.187500
v 0.000000 -0.087500 -0.375000
v 0.000000 -0.087500 -0.187500
v 0.000000 0.537500 -0.187500
v 0.000000 0.537500 -0.375000
vt 0.406250 0.687500
vt 0.500000 0.687500
vt 0.500000 1.000000
vt 0.406250 1.000000
vt 0.406250 0.375000
vt 0.500000 0.375000
vt 0.500000 0.687500
vt 0.406250 0.687500
vn 1.0000 0.0000 0.0000
vn -1.0000 0.0000 0.0000
usemtl m_a5f10dc0-3661-ffe4-7677-aabab651024b
s 1
f 81/203/52 82/204/52 83/205/52 84/206/52
f 85/207/53 86/208/53 87/209/53 88/210/53
o cube.010
v -0.000625 -0.399112 -0.093750
v -0.000625 -0.211612 -0.093750
v -0.000625 -0.211612 0.093750
v -0.000625 -0.399112 0.093750
v -0.000625 -0.211612 -0.093750
v -0.000625 -0.399112 -0.093750
v -0.000625 -0.399112 0.093750
v -0.000625 -0.211612 0.093750
vt 0.562500 0.531250
vt 0.656250 0.531250
vt 0.656250 0.625000
vt 0.562500 0.625000
vt 0.562500 0.437500
vt 0.656250 0.437500
vt 0.656250 0.531250
vt 0.562500 0.531250
vn 1.0000 0.0000 0.0000
vn -1.0000 -0.0000 0.0000
usemtl m_a5f10dc0-3661-ffe4-7677-aabab651024b
s 1
f 89/211/54 90/212/54 91/213/54 92/214/54
f 93/215/55 94/216/55 95/217/55 96/218/55
o cube.011
v 0.000000 -0.836612 -0.093750
v 0.000000 -0.336612 -0.093750
v 0.000000 -0.336612 0.093750
v 0.000000 -0.836612 0.093750
v 0.000000 -0.336612 -0.093750
v 0.000000 -0.836612 -0.093750
v 0.000000 -0.836612 0.093750
v 0.000000 -0.336612 0.093750
vt 0.500000 0.906250
vt 0.750000 0.906250
vt 0.750000 1.000000
vt 0.500000 1.000000
vt 0.500000 0.812500
vt 0.750000 0.812500
vt 0.750000 0.906250
vt 0.500000 0.906250
vn 1.0000 0.0000 0.0000
vn -1.0000 0.0000 0.0000
usemtl m_a5f10dc0-3661-ffe4-7677-aabab651024b
s 1
f 97/219/56 98/220/56 99/221/56 100/222/56
f 101/223/57 102/224/57 103/225/57 104/226/57
