# Blender v3.0.0 OBJ File: ''
# www.blender.org
mtllib pharaoh.mtl
o body
v 0.056250 -0.056250 0.375000
v -0.056250 -0.056250 0.375000
v -0.056250 0.056250 0.375000
v 0.056250 0.056250 0.375000
v 0.056250 -0.056250 0.812500
v 0.056250 0.056250 0.812500
v -0.056250 -0.056250 0.812500
v -0.056250 0.056250 0.812500
vt 0.734375 0.359375
vt 0.765625 0.359375
vt 0.765625 0.390625
vt 0.734375 0.390625
vt 0.593750 0.781250
vt 0.703125 0.781250
vt 0.703125 0.812500
vt 0.593750 0.812500
vt 0.734375 0.328125
vt 0.765625 0.328125
vt 0.765625 0.359375
vt 0.734375 0.359375
vt 0.593750 0.750000
vt 0.703125 0.750000
vt 0.703125 0.781250
vt 0.593750 0.781250
vt 0.687500 0.937500
vt 0.656250 0.937500
vt 0.656250 0.828125
vt 0.687500 0.828125
vt 0.687500 0.343750
vt 0.656250 0.343750
vt 0.656250 0.453125
vt 0.687500 0.453125
vn 0.0000 0.0000 -1.0000
vn 1.0000 0.0000 0.0000
vn 0.0000 0.0000 1.0000
vn -1.0000 0.0000 0.0000
vn 0.0000 1.0000 0.0000
vn 0.0000 -1.0000 -0.0000
usemtl m_ca556e74-9a24-04bb-088f-0c641d4db935
s 1
f 1/1/1 2/2/1 3/3/1 4/4/1
f 5/5/2 1/6/2 4/7/2 6/8/2
f 7/9/3 5/10/3 6/11/3 8/12/3
f 2/13/4 7/14/4 8/15/4 3/16/4
f 8/17/5 6/18/5 4/19/5 3/20/5
f 2/21/6 1/22/6 5/23/6 7/24/6
o body.000
v 0.062500 0.101832 -0.960922
v -0.062500 0.101832 -0.960922
v -0.062500 0.226713 -0.955470
v 0.062500 0.226713 -0.955470
v 0.062500 0.060939 -0.024315
v 0.062500 0.185820 -0.018862
v -0.062500 0.060939 -0.024315
v -0.062500 0.185820 -0.018862
vt 0.718750 0.234375
vt 0.750000 0.234375
vt 0.750000 0.265625
vt 0.718750 0.265625
vt 0.375000 0.468750
vt 0.609375 0.468750
vt 0.609375 0.500000
vt 0.375000 0.500000
vt 0.000000 0.218750
vt 0.031250 0.218750
vt 0.031250 0.250000
vt 0.000000 0.250000
vt 0.531250 0.968750
vt 0.765625 0.968750
vt 0.765625 1.000000
vt 0.531250 1.000000
vt 0.562500 0.968750
vt 0.531250 0.968750
vt 0.531250 0.734375
vt 0.562500 0.734375
vt 0.562500 0.500000
vt 0.531250 0.500000
vt 0.531250 0.734375
vt 0.562500 0.734375
vn 0.0000 0.0436 -0.9990
vn 1.0000 0.0000 0.0000
vn 0.0000 -0.0436 0.9990
vn -1.0000 0.0000 0.0000
vn 0.0000 0.9990 0.0436
vn 0.0000 -0.9990 -0.0436
usemtl m_ca556e74-9a24-04bb-088f-0c641d4db935
s 1
f 9/25/7 10/26/7 11/27/7 12/28/7
f 13/29/8 9/30/8 12/31/8 14/32/8
f 15/33/9 13/34/9 14/35/9 16/36/9
f 10/37/10 15/38/10 16/39/10 11/40/10
f 16/41/11 14/42/11 12/43/11 11/44/11
f 10/45/12 9/46/12 13/47/12 15/48/12
o body.001
v 0.062500 -0.062500 -0.146875
v -0.062500 -0.062500 -0.146875
v -0.062500 0.062500 -0.146875
v 0.062500 0.062500 -0.146875
v 0.062500 -0.062500 0.375000
v 0.062500 0.062500 0.375000
v -0.062500 -0.062500 0.375000
v -0.062500 0.062500 0.375000
vt 0.031250 0.218750
vt 0.062500 0.218750
vt 0.062500 0.250000
vt 0.031250 0.250000
vt 0.562500 0.609375
vt 0.687500 0.609375
vt 0.687500 0.640625
vt 0.562500 0.640625
vt 0.062500 0.218750
vt 0.093750 0.218750
vt 0.093750 0.250000
vt 0.062500 0.250000
vt 0.562500 0.578125
vt 0.687500 0.578125
vt 0.687500 0.609375
vt 0.562500 0.609375
vt 0.625000 0.937500
vt 0.593750 0.937500
vt 0.593750 0.812500
vt 0.625000 0.812500
vt 0.625000 0.312500
vt 0.593750 0.312500
vt 0.593750 0.437500
vt 0.625000 0.437500
vn 0.0000 0.0000 -1.0000
vn 1.0000 0.0000 0.0000
vn 0.0000 0.0000 1.0000
vn -1.0000 0.0000 0.0000
vn 0.0000 1.0000 0.0000
vn 0.0000 -1.0000 -0.0000
usemtl m_ca556e74-9a24-04bb-088f-0c641d4db935
s 1
f 17/49/13 18/50/13 19/51/13 20/52/13
f 21/53/14 17/54/14 20/55/14 22/56/14
f 23/57/15 21/58/15 22/59/15 24/60/15
f 18/61/16 23/62/16 24/63/16 19/64/16
f 24/65/17 22/66/17 20/67/17 19/68/17
f 18/69/18 17/70/18 21/71/18 23/72/18
o body.002
v 0.056250 -0.056250 1.581250
v -0.056250 -0.056250 1.581250
v -0.056250 0.056250 1.581250
v 0.056250 0.056250 1.581250
v 0.056250 -0.056250 1.693750
v 0.056250 0.056250 1.693750
v -0.056250 -0.056250 1.693750
v -0.056250 0.056250 1.693750
vt 0.750000 0.875000
vt 0.781250 0.875000
vt 0.781250 0.906250
vt 0.750000 0.906250
vt 0.125000 0.218750
vt 0.156250 0.218750
vt 0.156250 0.250000
vt 0.125000 0.250000
vt 0.750000 0.843750
vt 0.781250 0.843750
vt 0.781250 0.875000
vt 0.750000 0.875000
vt 0.156250 0.218750
vt 0.187500 0.218750
vt 0.187500 0.250000
vt 0.156250 0.250000
vt 0.781250 0.843750
vt 0.750000 0.843750
vt 0.750000 0.812500
vt 0.781250 0.812500
vt 0.218750 0.218750
vt 0.187500 0.218750
vt 0.187500 0.250000
vt 0.218750 0.250000
vn 0.0000 0.0000 -1.0000
vn 1.0000 0.0000 0.0000
vn 0.0000 0.0000 1.0000
vn -1.0000 0.0000 0.0000
vn 0.0000 1.0000 0.0000
vn 0.0000 -1.0000 -0.0000
usemtl m_ca556e74-9a24-04bb-088f-0c641d4db935
s 1
f 25/73/19 26/74/19 27/75/19 28/76/19
f 29/77/20 25/78/20 28/79/20 30/80/20
f 31/81/21 29/82/21 30/83/21 32/84/21
f 26/85/22 31/86/22 32/87/22 27/88/22
f 32/89/23 30/90/23 28/91/23 27/92/23
f 26/93/24 25/94/24 29/95/24 31/96/24
o body.003
v 0.050000 -0.221875 -0.131250
v -0.050000 -0.221875 -0.131250
v -0.050000 0.221875 -0.131250
v 0.050000 0.221875 -0.131250
v 0.050000 -0.221875 -0.031250
v 0.050000 0.221875 -0.031250
v -0.050000 -0.221875 -0.031250
v -0.050000 0.221875 -0.031250
vt 0.656250 0.234375
vt 0.687500 0.234375
vt 0.687500 0.343750
vt 0.656250 0.343750
vt 0.671875 0.468750
vt 0.703125 0.468750
vt 0.703125 0.578125
vt 0.671875 0.578125
vt 0.625000 0.218750
vt 0.656250 0.218750
vt 0.656250 0.328125
vt 0.625000 0.328125
vt 0.687500 0.828125
vt 0.718750 0.828125
vt 0.718750 0.937500
vt 0.687500 0.937500
vt 0.375000 0.250000
vt 0.343750 0.250000
vt 0.343750 0.218750
vt 0.375000 0.218750
vt 0.781250 0.515625
vt 0.750000 0.515625
vt 0.750000 0.546875
vt 0.781250 0.546875
vn 0.0000 0.0000 -1.0000
vn 1.0000 0.0000 0.0000
vn 0.0000 -0.0000 1.0000
vn -1.0000 0.0000 0.0000
vn 0.0000 1.0000 0.0000
vn 0.0000 -1.0000 0.0000
usemtl m_ca556e74-9a24-04bb-088f-0c641d4db935
s 1
f 33/97/25 34/98/25 35/99/25 36/100/25
f 37/101/26 33/102/26 36/103/26 38/104/26
f 39/105/27 37/106/27 38/107/27 40/108/27
f 34/109/28 39/110/28 40/111/28 35/112/28
f 40/113/29 38/114/29 36/115/29 35/116/29
f 34/117/30 33/118/30 37/119/30 39/120/30
o body.004
v 0.050000 -0.050000 0.812500
v -0.050000 -0.050000 0.812500
v -0.050000 0.050000 0.812500
v 0.050000 0.050000 0.812500
v 0.050000 -0.050000 1.625000
v 0.050000 0.050000 1.625000
v -0.050000 -0.050000 1.625000
v -0.050000 0.050000 1.625000
vt 0.750000 0.484375
vt 0.781250 0.484375
vt 0.781250 0.515625
vt 0.750000 0.515625
vt 0.562500 0.671875
vt 0.765625 0.671875
vt 0.765625 0.703125
vt 0.562500 0.703125
vt 0.750000 0.453125
vt 0.781250 0.453125
vt 0.781250 0.484375
vt 0.750000 0.484375
vt 0.562500 0.640625
vt 0.765625 0.640625
vt 0.765625 0.671875
vt 0.562500 0.671875
vt 0.437500 0.437500
vt 0.406250 0.437500
vt 0.406250 0.234375
vt 0.437500 0.234375
vt 0.468750 0.234375
vt 0.437500 0.234375
vt 0.437500 0.437500
vt 0.468750 0.437500
vn 0.0000 0.0000 -1.0000
vn 1.0000 0.0000 0.0000
vn 0.0000 0.0000 1.0000
vn -1.0000 0.0000 0.0000
vn 0.0000 1.0000 0.0000
vn 0.0000 -1.0000 -0.0000
usemtl m_ca556e74-9a24-04bb-088f-0c641d4db935
s 1
f 41/121/31 42/122/31 43/123/31 44/124/31
f 45/125/32 41/126/32 44/127/32 46/128/32
f 47/129/33 45/130/33 46/131/33 48/132/33
f 42/133/34 47/134/34 48/135/34 43/136/34
f 48/137/35 46/138/35 44/139/35 43/140/35
f 42/141/36 41/142/36 45/143/36 47/144/36
o body.005
v 0.093750 0.092220 -1.098973
v -0.093750 0.092220 -1.098973
v -0.093750 0.248321 -1.092157
v 0.093750 0.248321 -1.092157
v 0.093750 0.084041 -0.911651
v 0.093750 0.240143 -0.904836
v -0.093750 0.084041 -0.911651
v -0.093750 0.240143 -0.904836
vt 0.562500 0.500000
vt 0.609375 0.500000
vt 0.609375 0.531250
vt 0.562500 0.531250
vt 0.687500 0.703125
vt 0.734375 0.703125
vt 0.734375 0.734375
vt 0.687500 0.734375
vt 0.734375 0.718750
vt 0.781250 0.718750
vt 0.781250 0.750000
vt 0.734375 0.750000
vt 0.734375 0.609375
vt 0.781250 0.609375
vt 0.781250 0.640625
vt 0.734375 0.640625
vt 0.609375 0.578125
vt 0.562500 0.578125
vt 0.640625 0.703125
vt 0.593750 0.703125
vt 0.593750 0.750000
vt 0.640625 0.750000
vn 0.0000 0.0436 -0.9990
vn 1.0000 0.0000 0.0000
vn 0.0000 -0.0436 0.9990
vn -1.0000 0.0000 0.0000
vn 0.0000 0.9990 0.0436
vn 0.0000 -0.9990 -0.0436
usemtl m_ca556e74-9a24-04bb-088f-0c641d4db935
s 1
f 49/145/37 50/146/37 51/147/37 52/148/37
f 53/149/38 49/150/38 52/151/38 54/152/38
f 55/153/39 53/154/39 54/155/39 56/156/39
f 50/157/40 55/158/40 56/159/40 51/160/40
f 56/161/41 54/162/41 52/148/41 51/147/41
f 50/163/42 49/164/42 53/165/42 55/166/42
o body.006
v 0.093750 -0.248321 -1.092157
v -0.093750 -0.248321 -1.092157
v -0.093750 -0.092220 -1.098973
v 0.093750 -0.092220 -1.098973
v 0.093750 -0.240142 -0.904836
v 0.093750 -0.084041 -0.911651
v -0.093750 -0.240142 -0.904836
v -0.093750 -0.084041 -0.911651
vt 0.734375 0.578125
vt 0.781250 0.578125
vt 0.781250 0.609375
vt 0.734375 0.609375
vt 0.734375 0.546875
vt 0.781250 0.546875
vt 0.781250 0.578125
vt 0.734375 0.578125
vt 0.734375 0.421875
vt 0.781250 0.421875
vt 0.781250 0.453125
vt 0.734375 0.453125
vt 0.734375 0.390625
vt 0.781250 0.390625
vt 0.781250 0.421875
vt 0.734375 0.421875
vt 0.687500 0.750000
vt 0.640625 0.750000
vt 0.640625 0.703125
vt 0.687500 0.703125
vt 0.546875 0.234375
vt 0.500000 0.234375
vt 0.500000 0.281250
vt 0.546875 0.281250
vn 0.0000 -0.0436 -0.9990
vn 1.0000 0.0000 0.0000
vn 0.0000 0.0436 0.9990
vn -1.0000 0.0000 0.0000
vn 0.0000 0.9990 -0.0436
vn 0.0000 -0.9990 0.0436
usemtl m_ca556e74-9a24-04bb-088f-0c641d4db935
s 1
f 57/167/43 58/168/43 59/169/43 60/170/43
f 61/171/44 57/172/44 60/173/44 62/174/44
f 63/175/45 61/176/45 62/177/45 64/178/45
f 58/179/46 63/180/46 64/181/46 59/182/46
f 64/183/47 62/184/47 60/185/47 59/186/47
f 58/187/48 57/188/48 61/189/48 63/190/48
o body.007
v 0.062500 -0.226713 -0.955470
v -0.062500 -0.226713 -0.955470
v -0.062500 -0.101832 -0.960922
v 0.062500 -0.101832 -0.960922
v 0.062500 -0.185820 -0.018862
v 0.062500 -0.060939 -0.024315
v -0.062500 -0.185820 -0.018862
v -0.062500 -0.060939 -0.024315
vt 0.750000 0.234375
vt 0.781250 0.234375
vt 0.781250 0.265625
vt 0.750000 0.265625
vt 0.375000 0.437500
vt 0.609375 0.437500
vt 0.609375 0.468750
vt 0.375000 0.468750
vt 0.765625 0.968750
vt 0.796875 0.968750
vt 0.796875 1.000000
vt 0.765625 1.000000
vt 0.562500 0.937500
vt 0.796875 0.937500
vt 0.796875 0.968750
vt 0.562500 0.968750
vt 0.593750 0.937500
vt 0.562500 0.937500
vt 0.562500 0.703125
vt 0.593750 0.703125
vt 0.406250 0.203125
vt 0.375000 0.203125
vt 0.406250 0.437500
vn 0.0000 -0.0436 -0.9990
vn 1.0000 0.0000 0.0000
vn 0.0000 0.0436 0.9990
vn -1.0000 0.0000 0.0000
vn 0.0000 0.9990 -0.0436
vn 0.0000 -0.9990 0.0436
usemtl m_ca556e74-9a24-04bb-088f-0c641d4db935
s 1
f 65/191/49 66/192/49 67/193/49 68/194/49
f 69/195/50 65/196/50 68/197/50 70/198/50
f 71/199/51 69/200/51 70/201/51 72/202/51
f 66/203/52 71/204/52 72/205/52 67/206/52
f 72/207/53 70/208/53 68/209/53 67/210/53
f 66/211/54 65/212/54 69/195/54 71/213/54
